<mxfile host="app.diagrams.net" modified="2024-04-24T09:30:36.806Z" agent="Mozilla/5.0 (Windows NT 10.0; Win64; x64) AppleWebKit/537.36 (KHTML, like Gecko) Chrome/123.0.0.0 Safari/537.36" etag="GL0VUUbDIS7tEVG1evr1" version="24.2.5" type="github">
  <diagram id="prtHgNgQTEPvFCAcTncT" name="Page-1">
    <mxGraphModel dx="2308" dy="771" grid="1" gridSize="10" guides="1" tooltips="1" connect="1" arrows="1" fold="1" page="1" pageScale="1" pageWidth="827" pageHeight="1169" math="0" shadow="0">
      <root>
        <mxCell id="0" />
        <mxCell id="1" parent="0" />
        <mxCell id="dNxyNK7c78bLwvsdeMH5-19" value="RPA" style="swimlane;html=1;childLayout=stackLayout;resizeParent=1;resizeParentMax=0;horizontal=0;startSize=20;horizontalStack=0;fillColor=#e1d5e7;strokeColor=#9673a6;" parent="1" vertex="1">
          <mxGeometry x="-10" y="40" width="810" height="740" as="geometry" />
        </mxCell>
        <mxCell id="pNaIODxHs5BfHkplszO5-26" style="edgeStyle=orthogonalEdgeStyle;rounded=0;orthogonalLoop=1;jettySize=auto;html=1;dashed=1;dashPattern=12 12;fillColor=#f5f5f5;strokeColor=#666666;gradientColor=#b3b3b3;entryX=0.25;entryY=0;entryDx=0;entryDy=0;" edge="1" parent="dNxyNK7c78bLwvsdeMH5-19" source="pNaIODxHs5BfHkplszO5-21" target="pNaIODxHs5BfHkplszO5-30">
          <mxGeometry relative="1" as="geometry">
            <mxPoint x="150" y="430" as="targetPoint" />
            <Array as="points">
              <mxPoint x="700" y="-10" />
              <mxPoint x="70" y="-10" />
              <mxPoint x="70" y="550" />
              <mxPoint x="212" y="550" />
            </Array>
          </mxGeometry>
        </mxCell>
        <mxCell id="dNxyNK7c78bLwvsdeMH5-20" value="後台" style="swimlane;html=1;startSize=20;horizontal=0;fillColor=#dae8fc;strokeColor=#6c8ebf;" parent="dNxyNK7c78bLwvsdeMH5-19" vertex="1">
          <mxGeometry x="20" width="790" height="120" as="geometry" />
        </mxCell>
        <mxCell id="dNxyNK7c78bLwvsdeMH5-25" value="" style="edgeStyle=orthogonalEdgeStyle;rounded=0;orthogonalLoop=1;jettySize=auto;html=1;" parent="dNxyNK7c78bLwvsdeMH5-20" source="dNxyNK7c78bLwvsdeMH5-23" target="dNxyNK7c78bLwvsdeMH5-24" edge="1">
          <mxGeometry relative="1" as="geometry" />
        </mxCell>
        <mxCell id="dNxyNK7c78bLwvsdeMH5-23" value="" style="ellipse;whiteSpace=wrap;html=1;fillColor=#fff2cc;strokeColor=#d6b656;" parent="dNxyNK7c78bLwvsdeMH5-20" vertex="1">
          <mxGeometry x="70" y="20" width="40" height="40" as="geometry" />
        </mxCell>
        <mxCell id="pNaIODxHs5BfHkplszO5-2" style="edgeStyle=orthogonalEdgeStyle;rounded=0;orthogonalLoop=1;jettySize=auto;html=1;exitX=1;exitY=0.5;exitDx=0;exitDy=0;entryX=0;entryY=0.5;entryDx=0;entryDy=0;" edge="1" parent="dNxyNK7c78bLwvsdeMH5-20" source="dNxyNK7c78bLwvsdeMH5-24" target="dNxyNK7c78bLwvsdeMH5-30">
          <mxGeometry relative="1" as="geometry" />
        </mxCell>
        <mxCell id="dNxyNK7c78bLwvsdeMH5-24" value="設定RPA&lt;br&gt;拼圖" style="rounded=0;whiteSpace=wrap;html=1;fontFamily=Helvetica;fontSize=12;align=center;fillColor=#fff2cc;strokeColor=#d6b656;" parent="dNxyNK7c78bLwvsdeMH5-20" vertex="1">
          <mxGeometry x="190" y="10" width="80" height="60" as="geometry" />
        </mxCell>
        <mxCell id="dNxyNK7c78bLwvsdeMH5-33" value="" style="edgeStyle=orthogonalEdgeStyle;rounded=0;orthogonalLoop=1;jettySize=auto;html=1;endArrow=classic;endFill=1;entryX=0;entryY=0.5;entryDx=0;entryDy=0;" parent="dNxyNK7c78bLwvsdeMH5-20" source="dNxyNK7c78bLwvsdeMH5-30" target="pNaIODxHs5BfHkplszO5-10" edge="1">
          <mxGeometry relative="1" as="geometry">
            <mxPoint x="550" y="40" as="targetPoint" />
          </mxGeometry>
        </mxCell>
        <mxCell id="dNxyNK7c78bLwvsdeMH5-30" value="完成設定" style="rounded=0;whiteSpace=wrap;html=1;fontFamily=Helvetica;fontSize=12;align=center;fillColor=#fff2cc;strokeColor=#d6b656;" parent="dNxyNK7c78bLwvsdeMH5-20" vertex="1">
          <mxGeometry x="345" y="10" width="80" height="60" as="geometry" />
        </mxCell>
        <mxCell id="pNaIODxHs5BfHkplszO5-10" value="部屬" style="shape=process;whiteSpace=wrap;html=1;backgroundOutline=1;fillColor=#f8cecc;strokeColor=#b85450;" vertex="1" parent="dNxyNK7c78bLwvsdeMH5-20">
          <mxGeometry x="520" y="10" width="90" height="60" as="geometry" />
        </mxCell>
        <mxCell id="pNaIODxHs5BfHkplszO5-21" value="&lt;font size=&quot;1&quot;&gt;name&lt;/font&gt;" style="html=1;shadow=0;dashed=0;shape=mxgraph.bootstrap.rrect;rSize=5;strokeColor=#b85450;html=1;whiteSpace=wrap;fillColor=#f8cecc;align=left;spacingLeft=50;fontSize=14;" vertex="1" parent="dNxyNK7c78bLwvsdeMH5-20">
          <mxGeometry x="620" y="10" width="100" height="20" as="geometry" />
        </mxCell>
        <mxCell id="pNaIODxHs5BfHkplszO5-22" value="@" style="html=1;shadow=0;dashed=0;shape=mxgraph.bootstrap.leftButton;strokeColor=inherit;gradientColor=inherit;fontColor=inherit;fillColor=#E9ECEF;rSize=5;perimeter=none;whiteSpace=wrap;resizeHeight=1;" vertex="1" parent="pNaIODxHs5BfHkplszO5-21">
          <mxGeometry width="30" height="20" relative="1" as="geometry" />
        </mxCell>
        <mxCell id="pNaIODxHs5BfHkplszO5-19" style="edgeStyle=orthogonalEdgeStyle;rounded=0;orthogonalLoop=1;jettySize=auto;html=1;exitX=0.5;exitY=1;exitDx=0;exitDy=0;entryX=0.5;entryY=0;entryDx=0;entryDy=0;" edge="1" parent="dNxyNK7c78bLwvsdeMH5-19" source="pNaIODxHs5BfHkplszO5-10" target="pNaIODxHs5BfHkplszO5-8">
          <mxGeometry relative="1" as="geometry" />
        </mxCell>
        <mxCell id="dNxyNK7c78bLwvsdeMH5-21" value="系統" style="swimlane;html=1;startSize=20;horizontal=0;fillColor=#d5e8d4;strokeColor=#82b366;" parent="dNxyNK7c78bLwvsdeMH5-19" vertex="1">
          <mxGeometry x="20" y="120" width="790" height="360" as="geometry" />
        </mxCell>
        <mxCell id="pNaIODxHs5BfHkplszO5-16" style="edgeStyle=orthogonalEdgeStyle;rounded=0;orthogonalLoop=1;jettySize=auto;html=1;exitX=1;exitY=0.5;exitDx=0;exitDy=0;entryX=0;entryY=0.5;entryDx=0;entryDy=0;" edge="1" parent="dNxyNK7c78bLwvsdeMH5-21" source="pNaIODxHs5BfHkplszO5-8" target="pNaIODxHs5BfHkplszO5-18">
          <mxGeometry relative="1" as="geometry">
            <mxPoint x="520" y="79.83333333333337" as="targetPoint" />
          </mxGeometry>
        </mxCell>
        <mxCell id="pNaIODxHs5BfHkplszO5-17" value="N" style="edgeLabel;html=1;align=center;verticalAlign=middle;resizable=0;points=[];" vertex="1" connectable="0" parent="pNaIODxHs5BfHkplszO5-16">
          <mxGeometry x="-0.2073" y="7" relative="1" as="geometry">
            <mxPoint y="-8" as="offset" />
          </mxGeometry>
        </mxCell>
        <mxCell id="pNaIODxHs5BfHkplszO5-8" value="起API服務" style="rhombus;whiteSpace=wrap;html=1;fillColor=#dae8fc;strokeColor=#6c8ebf;" vertex="1" parent="dNxyNK7c78bLwvsdeMH5-21">
          <mxGeometry x="380" y="40" width="80" height="80" as="geometry" />
        </mxCell>
        <mxCell id="pNaIODxHs5BfHkplszO5-59" style="edgeStyle=orthogonalEdgeStyle;rounded=0;orthogonalLoop=1;jettySize=auto;html=1;exitX=0.5;exitY=1;exitDx=0;exitDy=0;" edge="1" parent="dNxyNK7c78bLwvsdeMH5-21" source="pNaIODxHs5BfHkplszO5-12">
          <mxGeometry relative="1" as="geometry">
            <mxPoint x="290" y="160" as="targetPoint" />
            <Array as="points">
              <mxPoint x="200" y="160" />
            </Array>
          </mxGeometry>
        </mxCell>
        <mxCell id="pNaIODxHs5BfHkplszO5-12" value="API服務" style="rounded=0;whiteSpace=wrap;html=1;fillColor=#e1d5e7;strokeColor=#9673a6;" vertex="1" parent="dNxyNK7c78bLwvsdeMH5-21">
          <mxGeometry x="160" y="50" width="80" height="60" as="geometry" />
        </mxCell>
        <mxCell id="pNaIODxHs5BfHkplszO5-18" value="背景執行" style="shape=process;whiteSpace=wrap;html=1;backgroundOutline=1;fillColor=#e1d5e7;strokeColor=#9673a6;" vertex="1" parent="dNxyNK7c78bLwvsdeMH5-21">
          <mxGeometry x="510" y="20" width="90" height="60" as="geometry" />
        </mxCell>
        <mxCell id="pNaIODxHs5BfHkplszO5-20" value="" style="group" vertex="1" connectable="0" parent="dNxyNK7c78bLwvsdeMH5-21">
          <mxGeometry x="280" y="50" width="30" height="30" as="geometry" />
        </mxCell>
        <mxCell id="pNaIODxHs5BfHkplszO5-13" style="edgeStyle=orthogonalEdgeStyle;rounded=0;orthogonalLoop=1;jettySize=auto;html=1;exitX=0;exitY=0.5;exitDx=0;exitDy=0;entryX=1;entryY=0.5;entryDx=0;entryDy=0;" edge="1" parent="pNaIODxHs5BfHkplszO5-20" source="pNaIODxHs5BfHkplszO5-8" target="pNaIODxHs5BfHkplszO5-12">
          <mxGeometry relative="1" as="geometry" />
        </mxCell>
        <mxCell id="pNaIODxHs5BfHkplszO5-15" value="Y" style="text;html=1;align=center;verticalAlign=middle;resizable=0;points=[];autosize=1;strokeColor=none;fillColor=none;" vertex="1" parent="pNaIODxHs5BfHkplszO5-20">
          <mxGeometry width="30" height="30" as="geometry" />
        </mxCell>
        <mxCell id="pNaIODxHs5BfHkplszO5-67" style="edgeStyle=orthogonalEdgeStyle;rounded=0;orthogonalLoop=1;jettySize=auto;html=1;" edge="1" parent="dNxyNK7c78bLwvsdeMH5-21" source="pNaIODxHs5BfHkplszO5-64">
          <mxGeometry relative="1" as="geometry">
            <mxPoint x="450" y="159.9999999999999" as="targetPoint" />
          </mxGeometry>
        </mxCell>
        <mxCell id="pNaIODxHs5BfHkplszO5-64" value="需要輸入" style="rhombus;whiteSpace=wrap;html=1;fillColor=#dae8fc;strokeColor=#6c8ebf;" vertex="1" parent="dNxyNK7c78bLwvsdeMH5-21">
          <mxGeometry x="290" y="120" width="80" height="80" as="geometry" />
        </mxCell>
        <mxCell id="pNaIODxHs5BfHkplszO5-68" value="執行 flow 程序" style="rounded=0;whiteSpace=wrap;html=1;fillColor=#e1d5e7;strokeColor=#9673a6;" vertex="1" parent="dNxyNK7c78bLwvsdeMH5-21">
          <mxGeometry x="450" y="130" width="120" height="60" as="geometry" />
        </mxCell>
        <mxCell id="pNaIODxHs5BfHkplszO5-75" style="edgeStyle=orthogonalEdgeStyle;rounded=0;orthogonalLoop=1;jettySize=auto;html=1;entryX=0.5;entryY=1;entryDx=0;entryDy=0;" edge="1" parent="dNxyNK7c78bLwvsdeMH5-21" source="pNaIODxHs5BfHkplszO5-72" target="pNaIODxHs5BfHkplszO5-68">
          <mxGeometry relative="1" as="geometry" />
        </mxCell>
        <mxCell id="pNaIODxHs5BfHkplszO5-72" value="等待輸入" style="whiteSpace=wrap;html=1;fillColor=#f8cecc;strokeColor=#b85450;" vertex="1" parent="dNxyNK7c78bLwvsdeMH5-21">
          <mxGeometry x="330" y="250" width="110" height="30" as="geometry" />
        </mxCell>
        <mxCell id="pNaIODxHs5BfHkplszO5-79" value="" style="group" vertex="1" connectable="0" parent="dNxyNK7c78bLwvsdeMH5-21">
          <mxGeometry x="340" y="200" width="30" height="30" as="geometry" />
        </mxCell>
        <mxCell id="pNaIODxHs5BfHkplszO5-73" value="" style="edgeStyle=orthogonalEdgeStyle;rounded=0;orthogonalLoop=1;jettySize=auto;html=1;" edge="1" parent="pNaIODxHs5BfHkplszO5-79" source="pNaIODxHs5BfHkplszO5-64" target="pNaIODxHs5BfHkplszO5-72">
          <mxGeometry relative="1" as="geometry" />
        </mxCell>
        <mxCell id="pNaIODxHs5BfHkplszO5-76" value="" style="group" vertex="1" connectable="0" parent="pNaIODxHs5BfHkplszO5-79">
          <mxGeometry width="30" height="30" as="geometry" />
        </mxCell>
        <mxCell id="pNaIODxHs5BfHkplszO5-77" style="edgeStyle=orthogonalEdgeStyle;rounded=0;orthogonalLoop=1;jettySize=auto;html=1;exitX=0;exitY=0.5;exitDx=0;exitDy=0;entryX=1;entryY=0.5;entryDx=0;entryDy=0;" edge="1" parent="pNaIODxHs5BfHkplszO5-76">
          <mxGeometry relative="1" as="geometry" />
        </mxCell>
        <mxCell id="pNaIODxHs5BfHkplszO5-78" value="Y" style="text;html=1;align=center;verticalAlign=middle;resizable=0;points=[];autosize=1;strokeColor=none;fillColor=none;" vertex="1" parent="pNaIODxHs5BfHkplszO5-76">
          <mxGeometry width="30" height="30" as="geometry" />
        </mxCell>
        <mxCell id="dNxyNK7c78bLwvsdeMH5-22" value="前台" style="swimlane;html=1;startSize=20;horizontal=0;fillColor=#fff2cc;strokeColor=#d6b656;" parent="dNxyNK7c78bLwvsdeMH5-19" vertex="1">
          <mxGeometry x="20" y="480" width="790" height="260" as="geometry" />
        </mxCell>
        <mxCell id="pNaIODxHs5BfHkplszO5-24" value="" style="ellipse;whiteSpace=wrap;html=1;aspect=fixed;fillColor=#fff2cc;strokeColor=#d6b656;" vertex="1" parent="dNxyNK7c78bLwvsdeMH5-22">
          <mxGeometry x="100" y="10" width="40" height="40" as="geometry" />
        </mxCell>
        <mxCell id="pNaIODxHs5BfHkplszO5-36" value="" style="edgeStyle=orthogonalEdgeStyle;rounded=0;orthogonalLoop=1;jettySize=auto;html=1;" edge="1" parent="dNxyNK7c78bLwvsdeMH5-22" source="pNaIODxHs5BfHkplszO5-30" target="pNaIODxHs5BfHkplszO5-35">
          <mxGeometry relative="1" as="geometry" />
        </mxCell>
        <mxCell id="pNaIODxHs5BfHkplszO5-30" value="&lt;font color=&quot;#0818ff&quot;&gt;【GET】/api/flow/:name&lt;/font&gt;&lt;br&gt;取得Flow 流程" style="rounded=0;whiteSpace=wrap;html=1;fillColor=#fff2cc;strokeColor=#d6b656;" vertex="1" parent="dNxyNK7c78bLwvsdeMH5-22">
          <mxGeometry x="140" y="50" width="210" height="60" as="geometry" />
        </mxCell>
        <mxCell id="pNaIODxHs5BfHkplszO5-35" value="是否顯示&lt;br&gt;輸入" style="rhombus;whiteSpace=wrap;html=1;fillColor=#dae8fc;strokeColor=#6c8ebf;rounded=0;" vertex="1" parent="dNxyNK7c78bLwvsdeMH5-22">
          <mxGeometry x="40" y="120" width="80" height="80" as="geometry" />
        </mxCell>
        <mxCell id="pNaIODxHs5BfHkplszO5-48" value="" style="edgeStyle=orthogonalEdgeStyle;rounded=0;orthogonalLoop=1;jettySize=auto;html=1;" edge="1" parent="dNxyNK7c78bLwvsdeMH5-22" source="pNaIODxHs5BfHkplszO5-37" target="pNaIODxHs5BfHkplszO5-47">
          <mxGeometry relative="1" as="geometry" />
        </mxCell>
        <mxCell id="pNaIODxHs5BfHkplszO5-37" value="Flow Node&lt;br&gt;&amp;nbsp;顯示畫面" style="shape=hexagon;perimeter=hexagonPerimeter2;whiteSpace=wrap;html=1;fixedSize=1;fillColor=#d5e8d4;strokeColor=#82b366;rounded=0;" vertex="1" parent="dNxyNK7c78bLwvsdeMH5-22">
          <mxGeometry x="210" y="140" width="100" height="80" as="geometry" />
        </mxCell>
        <mxCell id="pNaIODxHs5BfHkplszO5-58" style="edgeStyle=orthogonalEdgeStyle;rounded=0;orthogonalLoop=1;jettySize=auto;html=1;entryX=0.5;entryY=1;entryDx=0;entryDy=0;" edge="1" parent="dNxyNK7c78bLwvsdeMH5-22" source="pNaIODxHs5BfHkplszO5-47" target="pNaIODxHs5BfHkplszO5-50">
          <mxGeometry relative="1" as="geometry" />
        </mxCell>
        <mxCell id="pNaIODxHs5BfHkplszO5-47" value="輸入" style="whiteSpace=wrap;html=1;fillColor=#d5e8d4;strokeColor=#82b366;rounded=0;" vertex="1" parent="dNxyNK7c78bLwvsdeMH5-22">
          <mxGeometry x="390" y="150" width="120" height="60" as="geometry" />
        </mxCell>
        <mxCell id="pNaIODxHs5BfHkplszO5-49" value="User" style="sketch=0;outlineConnect=0;strokeColor=#82b366;fillColor=#d5e8d4;dashed=0;verticalLabelPosition=bottom;verticalAlign=top;align=center;html=1;fontSize=12;fontStyle=0;aspect=fixed;shape=mxgraph.aws4.resourceIcon;resIcon=mxgraph.aws4.user;" vertex="1" parent="dNxyNK7c78bLwvsdeMH5-22">
          <mxGeometry x="470" y="160" width="30" height="30" as="geometry" />
        </mxCell>
        <mxCell id="pNaIODxHs5BfHkplszO5-92" style="edgeStyle=orthogonalEdgeStyle;rounded=0;orthogonalLoop=1;jettySize=auto;html=1;" edge="1" parent="dNxyNK7c78bLwvsdeMH5-22" source="pNaIODxHs5BfHkplszO5-50" target="pNaIODxHs5BfHkplszO5-87">
          <mxGeometry relative="1" as="geometry" />
        </mxCell>
        <mxCell id="pNaIODxHs5BfHkplszO5-50" value="&lt;font color=&quot;#0818ff&quot;&gt;【POST】 /api/flow/:name&lt;/font&gt;&lt;br&gt;送出輸入內容" style="whiteSpace=wrap;html=1;fillColor=#fff2cc;strokeColor=#d6b656;rounded=0;" vertex="1" parent="dNxyNK7c78bLwvsdeMH5-22">
          <mxGeometry x="370" y="50" width="160" height="60" as="geometry" />
        </mxCell>
        <mxCell id="pNaIODxHs5BfHkplszO5-57" style="edgeStyle=orthogonalEdgeStyle;rounded=0;orthogonalLoop=1;jettySize=auto;html=1;exitX=1;exitY=0.5;exitDx=0;exitDy=0;entryX=0.528;entryY=0.045;entryDx=0;entryDy=0;entryPerimeter=0;" edge="1" parent="dNxyNK7c78bLwvsdeMH5-22" source="pNaIODxHs5BfHkplszO5-24" target="pNaIODxHs5BfHkplszO5-30">
          <mxGeometry relative="1" as="geometry" />
        </mxCell>
        <mxCell id="pNaIODxHs5BfHkplszO5-85" value="" style="group" vertex="1" connectable="0" parent="dNxyNK7c78bLwvsdeMH5-22">
          <mxGeometry x="130" y="130" width="30" height="30" as="geometry" />
        </mxCell>
        <mxCell id="pNaIODxHs5BfHkplszO5-38" value="" style="edgeStyle=orthogonalEdgeStyle;rounded=0;orthogonalLoop=1;jettySize=auto;html=1;" edge="1" parent="pNaIODxHs5BfHkplszO5-85" source="pNaIODxHs5BfHkplszO5-35" target="pNaIODxHs5BfHkplszO5-37">
          <mxGeometry relative="1" as="geometry" />
        </mxCell>
        <mxCell id="pNaIODxHs5BfHkplszO5-80" value="" style="group" vertex="1" connectable="0" parent="pNaIODxHs5BfHkplszO5-85">
          <mxGeometry width="30" height="30" as="geometry" />
        </mxCell>
        <mxCell id="pNaIODxHs5BfHkplszO5-81" value="" style="edgeStyle=orthogonalEdgeStyle;rounded=0;orthogonalLoop=1;jettySize=auto;html=1;" edge="1" parent="pNaIODxHs5BfHkplszO5-80">
          <mxGeometry relative="1" as="geometry" />
        </mxCell>
        <mxCell id="pNaIODxHs5BfHkplszO5-82" value="" style="group" vertex="1" connectable="0" parent="pNaIODxHs5BfHkplszO5-80">
          <mxGeometry width="30" height="30" as="geometry" />
        </mxCell>
        <mxCell id="pNaIODxHs5BfHkplszO5-83" style="edgeStyle=orthogonalEdgeStyle;rounded=0;orthogonalLoop=1;jettySize=auto;html=1;exitX=0;exitY=0.5;exitDx=0;exitDy=0;entryX=1;entryY=0.5;entryDx=0;entryDy=0;" edge="1" parent="pNaIODxHs5BfHkplszO5-82">
          <mxGeometry relative="1" as="geometry" />
        </mxCell>
        <mxCell id="pNaIODxHs5BfHkplszO5-84" value="Y" style="text;html=1;align=center;verticalAlign=middle;resizable=0;points=[];autosize=1;strokeColor=none;fillColor=none;" vertex="1" parent="pNaIODxHs5BfHkplszO5-82">
          <mxGeometry width="30" height="30" as="geometry" />
        </mxCell>
        <mxCell id="pNaIODxHs5BfHkplszO5-87" value="輸出最後結果" style="shape=hexagon;perimeter=hexagonPerimeter2;whiteSpace=wrap;html=1;fixedSize=1;fillColor=#d5e8d4;strokeColor=#82b366;" vertex="1" parent="dNxyNK7c78bLwvsdeMH5-22">
          <mxGeometry x="650" y="105" width="120" height="80" as="geometry" />
        </mxCell>
        <mxCell id="pNaIODxHs5BfHkplszO5-86" style="edgeStyle=orthogonalEdgeStyle;rounded=0;orthogonalLoop=1;jettySize=auto;html=1;" edge="1" parent="dNxyNK7c78bLwvsdeMH5-22" source="pNaIODxHs5BfHkplszO5-35" target="pNaIODxHs5BfHkplszO5-87">
          <mxGeometry relative="1" as="geometry">
            <mxPoint x="710" y="150" as="targetPoint" />
            <Array as="points">
              <mxPoint x="80" y="240" />
              <mxPoint x="710" y="240" />
            </Array>
          </mxGeometry>
        </mxCell>
        <mxCell id="pNaIODxHs5BfHkplszO5-91" value="N" style="edgeLabel;html=1;align=center;verticalAlign=middle;resizable=0;points=[];" vertex="1" connectable="0" parent="dNxyNK7c78bLwvsdeMH5-22">
          <mxGeometry x="450" y="-149.99666666666667" as="geometry">
            <mxPoint x="-356" y="377" as="offset" />
          </mxGeometry>
        </mxCell>
        <mxCell id="pNaIODxHs5BfHkplszO5-74" style="edgeStyle=orthogonalEdgeStyle;rounded=0;orthogonalLoop=1;jettySize=auto;html=1;entryX=0.5;entryY=1;entryDx=0;entryDy=0;" edge="1" parent="dNxyNK7c78bLwvsdeMH5-19" source="pNaIODxHs5BfHkplszO5-50" target="pNaIODxHs5BfHkplszO5-72">
          <mxGeometry relative="1" as="geometry" />
        </mxCell>
        <mxCell id="pNaIODxHs5BfHkplszO5-93" style="edgeStyle=orthogonalEdgeStyle;rounded=0;orthogonalLoop=1;jettySize=auto;html=1;entryX=0.75;entryY=0;entryDx=0;entryDy=0;" edge="1" parent="dNxyNK7c78bLwvsdeMH5-19" source="pNaIODxHs5BfHkplszO5-68" target="pNaIODxHs5BfHkplszO5-50">
          <mxGeometry relative="1" as="geometry">
            <Array as="points">
              <mxPoint x="610" y="280" />
              <mxPoint x="610" y="420" />
              <mxPoint x="510" y="420" />
            </Array>
          </mxGeometry>
        </mxCell>
        <mxCell id="pNaIODxHs5BfHkplszO5-89" value="N" style="edgeLabel;html=1;align=center;verticalAlign=middle;resizable=0;points=[];" vertex="1" connectable="0" parent="1">
          <mxGeometry x="508" y="245.33333333333337" as="geometry">
            <mxPoint x="-102" y="67" as="offset" />
          </mxGeometry>
        </mxCell>
        <mxCell id="pNaIODxHs5BfHkplszO5-94" value="N" style="text;html=1;align=center;verticalAlign=middle;resizable=0;points=[];autosize=1;strokeColor=none;fillColor=none;" vertex="1" parent="1">
          <mxGeometry x="495" y="378" width="30" height="30" as="geometry" />
        </mxCell>
      </root>
    </mxGraphModel>
  </diagram>
</mxfile>
